<mxfile host="Electron" modified="2023-08-27T07:22:05.057Z" agent="Mozilla/5.0 (Macintosh; Intel Mac OS X 10_15_7) AppleWebKit/537.36 (KHTML, like Gecko) draw.io/21.2.8 Chrome/112.0.5615.165 Electron/24.2.0 Safari/537.36" etag="CN0AMFcmgYSov1q4m4q1" version="21.2.8" type="device">
  <diagram name="Page-1" id="LKKpv23IxvRZbsNfFmb6">
    <mxGraphModel dx="586" dy="393" grid="1" gridSize="10" guides="1" tooltips="1" connect="1" arrows="1" fold="1" page="1" pageScale="1" pageWidth="850" pageHeight="1100" math="0" shadow="0">
      <root>
        <mxCell id="0" />
        <mxCell id="1" parent="0" />
        <mxCell id="Sj4t9uvqGlL-P1PY1Ujr-1" value="" style="endArrow=none;html=1;rounded=0;" edge="1" parent="1" source="Sj4t9uvqGlL-P1PY1Ujr-3">
          <mxGeometry width="50" height="50" relative="1" as="geometry">
            <mxPoint x="200" y="340" as="sourcePoint" />
            <mxPoint x="200" y="120" as="targetPoint" />
          </mxGeometry>
        </mxCell>
        <mxCell id="Sj4t9uvqGlL-P1PY1Ujr-2" value="aCaretaker" style="text;html=1;strokeColor=none;fillColor=none;align=center;verticalAlign=middle;whiteSpace=wrap;rounded=0;" vertex="1" parent="1">
          <mxGeometry x="170" y="90" width="60" height="30" as="geometry" />
        </mxCell>
        <mxCell id="Sj4t9uvqGlL-P1PY1Ujr-4" value="" style="endArrow=none;html=1;rounded=0;" edge="1" parent="1" target="Sj4t9uvqGlL-P1PY1Ujr-3">
          <mxGeometry width="50" height="50" relative="1" as="geometry">
            <mxPoint x="200" y="340" as="sourcePoint" />
            <mxPoint x="200" y="120" as="targetPoint" />
          </mxGeometry>
        </mxCell>
        <mxCell id="Sj4t9uvqGlL-P1PY1Ujr-3" value="" style="rounded=0;whiteSpace=wrap;html=1;" vertex="1" parent="1">
          <mxGeometry x="190" y="135" width="20" height="80" as="geometry" />
        </mxCell>
        <mxCell id="Sj4t9uvqGlL-P1PY1Ujr-7" value="" style="rounded=0;whiteSpace=wrap;html=1;" vertex="1" parent="1">
          <mxGeometry x="190" y="242" width="20" height="80" as="geometry" />
        </mxCell>
        <mxCell id="Sj4t9uvqGlL-P1PY1Ujr-8" value="" style="endArrow=none;html=1;rounded=0;" edge="1" source="Sj4t9uvqGlL-P1PY1Ujr-11" parent="1">
          <mxGeometry width="50" height="50" relative="1" as="geometry">
            <mxPoint x="330" y="340" as="sourcePoint" />
            <mxPoint x="330" y="120" as="targetPoint" />
          </mxGeometry>
        </mxCell>
        <mxCell id="Sj4t9uvqGlL-P1PY1Ujr-9" value="anOriginator" style="text;html=1;strokeColor=none;fillColor=none;align=center;verticalAlign=middle;whiteSpace=wrap;rounded=0;" vertex="1" parent="1">
          <mxGeometry x="300" y="90" width="60" height="30" as="geometry" />
        </mxCell>
        <mxCell id="Sj4t9uvqGlL-P1PY1Ujr-10" value="" style="endArrow=none;html=1;rounded=0;" edge="1" target="Sj4t9uvqGlL-P1PY1Ujr-11" parent="1">
          <mxGeometry width="50" height="50" relative="1" as="geometry">
            <mxPoint x="330" y="340" as="sourcePoint" />
            <mxPoint x="330" y="120" as="targetPoint" />
          </mxGeometry>
        </mxCell>
        <mxCell id="Sj4t9uvqGlL-P1PY1Ujr-11" value="" style="rounded=0;whiteSpace=wrap;html=1;" vertex="1" parent="1">
          <mxGeometry x="320" y="150" width="20" height="65" as="geometry" />
        </mxCell>
        <mxCell id="Sj4t9uvqGlL-P1PY1Ujr-12" value="" style="rounded=0;whiteSpace=wrap;html=1;" vertex="1" parent="1">
          <mxGeometry x="320" y="258" width="20" height="62" as="geometry" />
        </mxCell>
        <mxCell id="Sj4t9uvqGlL-P1PY1Ujr-13" value="" style="endArrow=none;html=1;rounded=0;dashed=1;" edge="1" source="Sj4t9uvqGlL-P1PY1Ujr-16" parent="1">
          <mxGeometry width="50" height="50" relative="1" as="geometry">
            <mxPoint x="460" y="340" as="sourcePoint" />
            <mxPoint x="460" y="120" as="targetPoint" />
          </mxGeometry>
        </mxCell>
        <mxCell id="Sj4t9uvqGlL-P1PY1Ujr-14" value="aMemento" style="text;html=1;strokeColor=none;fillColor=none;align=center;verticalAlign=middle;whiteSpace=wrap;rounded=0;" vertex="1" parent="1">
          <mxGeometry x="430" y="90" width="60" height="30" as="geometry" />
        </mxCell>
        <mxCell id="Sj4t9uvqGlL-P1PY1Ujr-15" value="" style="endArrow=none;html=1;rounded=0;" edge="1" target="Sj4t9uvqGlL-P1PY1Ujr-16" parent="1">
          <mxGeometry width="50" height="50" relative="1" as="geometry">
            <mxPoint x="460" y="340" as="sourcePoint" />
            <mxPoint x="460" y="120" as="targetPoint" />
          </mxGeometry>
        </mxCell>
        <mxCell id="Sj4t9uvqGlL-P1PY1Ujr-16" value="" style="rounded=0;whiteSpace=wrap;html=1;" vertex="1" parent="1">
          <mxGeometry x="450" y="161" width="20" height="20" as="geometry" />
        </mxCell>
        <mxCell id="Sj4t9uvqGlL-P1PY1Ujr-17" value="" style="rounded=0;whiteSpace=wrap;html=1;" vertex="1" parent="1">
          <mxGeometry x="450" y="269" width="20" height="20" as="geometry" />
        </mxCell>
        <mxCell id="Sj4t9uvqGlL-P1PY1Ujr-18" value="" style="rounded=0;whiteSpace=wrap;html=1;" vertex="1" parent="1">
          <mxGeometry x="450" y="190" width="20" height="20" as="geometry" />
        </mxCell>
        <mxCell id="Sj4t9uvqGlL-P1PY1Ujr-19" value="" style="endArrow=blockThin;html=1;rounded=0;endFill=1;entryX=-0.012;entryY=0.081;entryDx=0;entryDy=0;entryPerimeter=0;exitX=1;exitY=0.25;exitDx=0;exitDy=0;" edge="1" parent="1" source="Sj4t9uvqGlL-P1PY1Ujr-3" target="Sj4t9uvqGlL-P1PY1Ujr-11">
          <mxGeometry width="50" height="50" relative="1" as="geometry">
            <mxPoint x="220" y="200" as="sourcePoint" />
            <mxPoint x="270" y="150" as="targetPoint" />
          </mxGeometry>
        </mxCell>
        <mxCell id="Sj4t9uvqGlL-P1PY1Ujr-20" value="CreateMemento()" style="edgeLabel;html=1;align=center;verticalAlign=middle;resizable=0;points=[];fontSize=8;" vertex="1" connectable="0" parent="Sj4t9uvqGlL-P1PY1Ujr-19">
          <mxGeometry x="-0.5023" relative="1" as="geometry">
            <mxPoint x="6" y="-7" as="offset" />
          </mxGeometry>
        </mxCell>
        <mxCell id="Sj4t9uvqGlL-P1PY1Ujr-21" value="" style="endArrow=blockThin;html=1;rounded=0;endFill=1;entryX=-0.02;entryY=0.071;entryDx=0;entryDy=0;entryPerimeter=0;exitX=1;exitY=0.25;exitDx=0;exitDy=0;" edge="1" parent="1" source="Sj4t9uvqGlL-P1PY1Ujr-7" target="Sj4t9uvqGlL-P1PY1Ujr-12">
          <mxGeometry width="50" height="50" relative="1" as="geometry">
            <mxPoint x="220" y="242" as="sourcePoint" />
            <mxPoint x="330" y="242" as="targetPoint" />
          </mxGeometry>
        </mxCell>
        <mxCell id="Sj4t9uvqGlL-P1PY1Ujr-22" value="SetMemento(aMemento)" style="edgeLabel;html=1;align=center;verticalAlign=middle;resizable=0;points=[];fontSize=8;" vertex="1" connectable="0" parent="Sj4t9uvqGlL-P1PY1Ujr-21">
          <mxGeometry x="-0.5023" relative="1" as="geometry">
            <mxPoint x="19" y="-7" as="offset" />
          </mxGeometry>
        </mxCell>
        <mxCell id="Sj4t9uvqGlL-P1PY1Ujr-23" value="" style="endArrow=blockThin;html=1;rounded=0;endFill=1;entryX=0;entryY=0.25;entryDx=0;entryDy=0;dashed=1;exitX=1;exitY=0.25;exitDx=0;exitDy=0;" edge="1" parent="1" source="Sj4t9uvqGlL-P1PY1Ujr-11" target="Sj4t9uvqGlL-P1PY1Ujr-16">
          <mxGeometry width="50" height="50" relative="1" as="geometry">
            <mxPoint x="350" y="167" as="sourcePoint" />
            <mxPoint x="470" y="149.56" as="targetPoint" />
          </mxGeometry>
        </mxCell>
        <mxCell id="Sj4t9uvqGlL-P1PY1Ujr-24" value="new Memento" style="edgeLabel;html=1;align=center;verticalAlign=middle;resizable=0;points=[];fontSize=8;" vertex="1" connectable="0" parent="Sj4t9uvqGlL-P1PY1Ujr-23">
          <mxGeometry x="-0.5023" relative="1" as="geometry">
            <mxPoint y="-7" as="offset" />
          </mxGeometry>
        </mxCell>
        <mxCell id="Sj4t9uvqGlL-P1PY1Ujr-25" value="" style="endArrow=blockThin;html=1;rounded=0;endFill=1;entryX=0;entryY=0.25;entryDx=0;entryDy=0;exitX=1.033;exitY=0.683;exitDx=0;exitDy=0;exitPerimeter=0;" edge="1" parent="1" source="Sj4t9uvqGlL-P1PY1Ujr-11" target="Sj4t9uvqGlL-P1PY1Ujr-18">
          <mxGeometry width="50" height="50" relative="1" as="geometry">
            <mxPoint x="380" y="194" as="sourcePoint" />
            <mxPoint x="490" y="194" as="targetPoint" />
          </mxGeometry>
        </mxCell>
        <mxCell id="Sj4t9uvqGlL-P1PY1Ujr-26" value="SetState()" style="edgeLabel;html=1;align=center;verticalAlign=middle;resizable=0;points=[];fontSize=8;" vertex="1" connectable="0" parent="Sj4t9uvqGlL-P1PY1Ujr-25">
          <mxGeometry x="-0.5023" relative="1" as="geometry">
            <mxPoint x="-7" y="-7" as="offset" />
          </mxGeometry>
        </mxCell>
        <mxCell id="Sj4t9uvqGlL-P1PY1Ujr-27" value="" style="endArrow=blockThin;html=1;rounded=0;endFill=1;entryX=0;entryY=0.25;entryDx=0;entryDy=0;exitX=1;exitY=0.25;exitDx=0;exitDy=0;" edge="1" parent="1" source="Sj4t9uvqGlL-P1PY1Ujr-12" target="Sj4t9uvqGlL-P1PY1Ujr-17">
          <mxGeometry width="50" height="50" relative="1" as="geometry">
            <mxPoint x="360" y="250" as="sourcePoint" />
            <mxPoint x="470" y="250" as="targetPoint" />
          </mxGeometry>
        </mxCell>
        <mxCell id="Sj4t9uvqGlL-P1PY1Ujr-28" value="GetState()" style="edgeLabel;html=1;align=center;verticalAlign=middle;resizable=0;points=[];fontSize=8;" vertex="1" connectable="0" parent="Sj4t9uvqGlL-P1PY1Ujr-27">
          <mxGeometry x="-0.5023" relative="1" as="geometry">
            <mxPoint x="-7" y="-7" as="offset" />
          </mxGeometry>
        </mxCell>
      </root>
    </mxGraphModel>
  </diagram>
</mxfile>
